{
  "accessors": [
    {
      "bufferView": 2,
      "componentType": 5126,
      "count": 1152,
      "max": [
        0.99761998653411865,
        1.0010800361633301,
        0.086709998548030853
      ],
      "min": [
        -1.0023800134658813,
        -0.9989200234413147,
        -0.13546000421047211
      ],
      "type": "VEC3"
    },
    {
      "bufferView": 2,
      "byteOffset": 13824,
      "componentType": 5126,
      "count": 1152,
      "max": [
        0.99518442153930664,
        0.99518442153930664,
        1
      ],
      "min": [
        -0.99518442153930664,
        -0.99518442153930664,
        -1
      ],
      "type": "VEC3"
    },
    {
      "bufferView": 3,
      "componentType": 5126,
      "count": 1152,
      "max": [
        0.95749539136886597,
        0.66273123025894165,
        1,
        1
      ],
      "min": [
        -0.99530714750289917,
        -0.68411189317703247,
        -1,
        1
      ],
      "type": "VEC4"
    },
    {
      "bufferView": 1,
      "componentType": 5126,
      "count": 1152,
      "max": [
        1,
        1
      ],
      "min": [
        0,
        0
      ],
      "type": "VEC2"
    },
    {
      "bufferView": 0,
      "componentType": 5125,
      "count": 1896,
      "max": [
        1151
      ],
      "min": [
        0
      ],
      "type": "SCALAR"
    },
    {
      "bufferView": 2,
      "byteOffset": 27648,
      "componentType": 5126,
      "count": 36,
      "max": [
        0.011739999987185001,
        0.017379999160766602,
        -0.0023099998943507671
      ],
      "min": [
        -0.016489999368786812,
        -0.01522000040858984,
        -0.097709998488426208
      ],
      "type": "VEC3"
    },
    {
      "bufferView": 2,
      "byteOffset": 28080,
      "componentType": 5126,
      "count": 36,
      "max": [
        1,
        0.86602658033370972,
        1
      ],
      "min": [
        -1,
        -0.86602658033370972,
        -1
      ],
      "type": "VEC3"
    },
    {
      "bufferView": 3,
      "byteOffset": 18432,
      "componentType": 5126,
      "count": 36,
      "max": [
        0.86591458320617676,
        0.99997919797897339,
        0.051461018621921539,
        -1
      ],
      "min": [
        -0.86580657958984375,
        -1,
        -0.025746725499629974,
        -1
      ],
      "type": "VEC4"
    },
    {
      "bufferView": 1,
      "byteOffset": 9216,
      "componentType": 5126,
      "count": 36,
      "max": [
        0.34619998931884766,
        0.39869999885559082
      ],
      "min": [
        0.32589998841285706,
        0.38036000728607178
      ],
      "type": "VEC2"
    },
    {
      "bufferView": 0,
      "byteOffset": 7584,
      "componentType": 5125,
      "count": 60,
      "max": [
        35
      ],
      "min": [
        0
      ],
      "type": "SCALAR"
    },
    {
      "bufferView": 2,
      "byteOffset": 28512,
      "componentType": 5126,
      "count": 30,
      "max": [
        0.19935999810695648,
        0.78346997499465942,
        0.089259997010231018
      ],
      "min": [
        -0.19935999810695648,
        -0.53360998630523682,
        0.051979999989271164
      ],
      "type": "VEC3"
    },
    {
      "bufferView": 2,
      "byteOffset": 28872,
      "componentType": 5126,
      "count": 30,
      "max": [
        0.98866093158721924,
        0.14983014762401581,
        0.98852306604385376
      ],
      "min": [
        -0.98866093158721924,
        -0.84652721881866455,
        -0.98851388692855835
      ],
      "type": "VEC3"
    },
    {
      "bufferView": 3,
      "byteOffset": 19008,
      "componentType": 5126,
      "count": 30,
      "max": [
        -0.14946633577346802,
        0.98861807584762573,
        0.15112443268299103,
        1
      ],
      "min": [
        -0.98847353458404541,
        -0.98829841613769531,
        -0.15112417936325073,
        -1
      ],
      "type": "VEC4"
    },
    {
      "bufferView": 1,
      "byteOffset": 9504,
      "componentType": 5126,
      "count": 30,
      "max": [
        0.65535002946853638,
        0.98479002714157104
      ],
      "min": [
        0.02589000016450882,
        0.74550998210906982
      ],
      "type": "VEC2"
    },
    {
      "bufferView": 0,
      "byteOffset": 7824,
      "componentType": 5125,
      "count": 42,
      "max": [
        29
      ],
      "min": [
        0
      ],
      "type": "SCALAR"
    }
  ],
  "asset": {
    "extras": {
      "author": "MasterMek (https://sketchfab.com/MasterMek)",
      "license": "CC-BY-4.0 (http://creativecommons.org/licenses/by/4.0/)",
      "source": "https://sketchfab.com/models/bf221d2c935a47728284af88ed33d0a3",
      "title": "Compass"
    },
    "generator": "Sketchfab-4.31.0",
    "version": "2.0"
  },
  "bufferViews": [
    {
      "buffer": 0,
      "byteLength": 7992,
      "byteOffset": 0,
      "name": "floatBufferViews",
      "target": 34963
    },
    {
      "buffer": 0,
      "byteLength": 9744,
      "byteOffset": 7992,
      "byteStride": 8,
      "name": "floatBufferViews",
      "target": 34962
    },
    {
      "buffer": 0,
      "byteLength": 29232,
      "byteOffset": 17736,
      "byteStride": 12,
      "name": "floatBufferViews",
      "target": 34962
    },
    {
      "buffer": 0,
      "byteLength": 19488,
      "byteOffset": 46968,
      "byteStride": 16,
      "name": "floatBufferViews",
      "target": 34962
    }
  ],
  "buffers": [
    {
      "byteLength": 66456,
      "uri": "scene.bin"
    }
  ],
  "extensionsUsed": [
    "KHR_materials_unlit"
  ],
  "images": [
    {
      "uri": "textures/Material.002_baseColor.png"
    },
    {
      "uri": "textures/Material.001_baseColor.png"
    }
  ],
  "materials": [
    {
      "alphaMode": "BLEND",
      "doubleSided": true,
      "emissiveFactor": [
        0,
        0,
        0
      ],
      "extensions": {
        "KHR_materials_unlit": {}
      },
      "name": "Material.001",
      "pbrMetallicRoughness": {
        "baseColorFactor": [
          1,
          1,
          1,
          1
        ],
        "baseColorTexture": {
          "index": 1,
          "texCoord": 0
        },
        "metallicFactor": 0,
        "roughnessFactor": 1
      }
    },
    {
      "alphaMode": "BLEND",
      "doubleSided": true,
      "emissiveFactor": [
        0,
        0,
        0
      ],
      "extensions": {
        "KHR_materials_unlit": {}
      },
      "name": "Material.002",
      "pbrMetallicRoughness": {
        "baseColorFactor": [
          1,
          1,
          1,
          1
        ],
        "baseColorTexture": {
          "index": 0,
          "texCoord": 0
        },
        "metallicFactor": 0,
        "roughnessFactor": 1
      }
    },
    {
      "doubleSided": true,
      "emissiveFactor": [
        0,
        0,
        0
      ],
      "extensions": {
        "KHR_materials_unlit": {}
      },
      "name": "Material",
      "pbrMetallicRoughness": {
        "baseColorFactor": [
          0.0219783019,
          0.0219783019,
          0.0219783019,
          1
        ],
        "metallicFactor": 0,
        "roughnessFactor": 1
      }
    }
  ],
  "meshes": [
    {
      "name": "case_0",
      "primitives": [
        {
          "attributes": {
            "NORMAL": 1,
            "POSITION": 0,
            "TANGENT": 2,
            "TEXCOORD_0": 3
          },
          "indices": 4,
          "material": 1,
          "mode": 4
        }
      ]
    },
    {
      "name": "case_1",
      "primitives": [
        {
          "attributes": {
            "NORMAL": 6,
            "POSITION": 5,
            "TANGENT": 7,
            "TEXCOORD_0": 8
          },
          "indices": 9,
          "material": 2,
          "mode": 4
        }
      ]
    },
    {
      "name": "arrow_0",
      "primitives": [
        {
          "attributes": {
            "NORMAL": 11,
            "POSITION": 10,
            "TANGENT": 12,
            "TEXCOORD_0": 13
          },
          "indices": 14,
          "material": 0,
          "mode": 4
        }
      ]
    }
  ],
  "nodes": [
    {
      "children": [
        1
      ],
      "name": "RootNode (gltf orientation matrix)",
      "rotation": [
        -0.70710678118654746,
        -0,
        -0,
        0.70710678118654757
      ]
    },
    {
      "children": [
        2
      ],
      "name": "RootNode (model correction matrix)"
    },
    {
      "children": [
        3,
        6
      ],
      "name": "Root"
    },
    {
      "children": [
        4,
        5
      ],
      "matrix": [
        1,
        0,
        0,
        0,
        0,
        1,
        0,
        0,
        0,
        0,
        1.9522199999999998,
        0,
        0.0023800000000000006,
        -0.0010800000000000002,
        0.092820000000000027,
        1
      ],
      "name": "case"
    },
    {
      "mesh": 0,
      "name": "case_0"
    },
    {
      "mesh": 1,
      "name": "case_1"
    },
    {
      "children": [
        7
      ],
      "matrix": [
        1,
        0,
        0,
        0,
        0,
        1,
        0,
        0,
        0,
        0,
        1.9522199999999998,
        0,
        0,
        0,
        -0.092460000000000028,
        1
      ],
      "name": "arrow"
    },
    {
      "mesh": 2,
      "name": "arrow_0"
    }
  ],
  "samplers": [
    {
      "magFilter": 9729,
      "minFilter": 9987,
      "wrapS": 10497,
      "wrapT": 10497
    }
  ],
  "scene": 0,
  "scenes": [
    {
      "name": "OSG_Scene",
      "nodes": [
        0
      ]
    }
  ],
  "textures": [
    {
      "sampler": 0,
      "source": 0
    },
    {
      "sampler": 0,
      "source": 1
    }
  ]
}

