{
  "accessors": [
    {
      "bufferView": 1,
      "componentType": 5126,
      "count": 668,
      "max": [
        59.85137939453125,
        14.487460136413574,
        11.145259857177734
      ],
      "min": [
        -79.356216430664062,
        -16.487449645996094,
        -1.4386700391769409
      ],
      "type": "VEC3"
    },
    {
      "bufferView": 1,
      "byteOffset": 8016,
      "componentType": 5126,
      "count": 668,
      "max": [
        0.78064084053039551,
        0.99847310781478882,
        0.75125390291213989
      ],
      "min": [
        -1,
        -0.99847310781478882,
        -0.97916209697723389
      ],
      "type": "VEC3"
    },
    {
      "bufferView": 0,
      "componentType": 5125,
      "count": 1098,
      "max": [
        667
      ],
      "min": [
        0
      ],
      "type": "SCALAR"
    },
    {
      "bufferView": 1,
      "byteOffset": 16032,
      "componentType": 5126,
      "count": 1152,
      "max": [
        32.667869567871094,
        14.53279972076416,
        16.058280944824219
      ],
      "min": [
        -4.7788000106811523,
        -16.525979995727539,
        14.707599639892578
      ],
      "type": "VEC3"
    },
    {
      "bufferView": 1,
      "byteOffset": 29856,
      "componentType": 5126,
      "count": 1152,
      "max": [
        1,
        1,
        0.86602658033370972
      ],
      "min": [
        -1,
        -1,
        -0.86602658033370972
      ],
      "type": "VEC3"
    },
    {
      "bufferView": 0,
      "byteOffset": 4392,
      "componentType": 5125,
      "count": 1920,
      "max": [
        1151
      ],
      "min": [
        0
      ],
      "type": "SCALAR"
    },
    {
      "bufferView": 1,
      "byteOffset": 43680,
      "componentType": 5126,
      "count": 795,
      "max": [
        60.912059783935547,
        14.487460136413574,
        43.541740417480469
      ],
      "min": [
        -85.229637145996094,
        -16.487449645996094,
        6.4345698356628418
      ],
      "type": "VEC3"
    },
    {
      "bufferView": 1,
      "byteOffset": 53220,
      "componentType": 5126,
      "count": 795,
      "max": [
        0.94273954629898071,
        1,
        1
      ],
      "min": [
        -0.94273954629898071,
        -1,
        -0.99548691511154175
      ],
      "type": "VEC3"
    },
    {
      "bufferView": 0,
      "byteOffset": 12072,
      "componentType": 5125,
      "count": 1533,
      "max": [
        794
      ],
      "min": [
        0
      ],
      "type": "SCALAR"
    },
    {
      "bufferView": 1,
      "byteOffset": 62760,
      "componentType": 5126,
      "count": 1344,
      "max": [
        16.74445915222168,
        7.8687000274658203,
        28.146110534667969
      ],
      "min": [
        -40.714981079101562,
        -9.9186000823974609,
        22.869989395141602
      ],
      "type": "VEC3"
    },
    {
      "bufferView": 1,
      "byteOffset": 78888,
      "componentType": 5126,
      "count": 1344,
      "max": [
        1,
        1,
        1
      ],
      "min": [
        -1,
        -1,
        -1
      ],
      "type": "VEC3"
    },
    {
      "bufferView": 0,
      "byteOffset": 18204,
      "componentType": 5125,
      "count": 2016,
      "max": [
        1343
      ],
      "min": [
        0
      ],
      "type": "SCALAR"
    },
    {
      "bufferView": 1,
      "byteOffset": 95016,
      "componentType": 5126,
      "count": 270,
      "max": [
        40.442970275878906,
        -0.043869998306035995,
        48.765911102294922
      ],
      "min": [
        -58.646228790283203,
        -1.7374500036239624,
        15.489999771118164
      ],
      "type": "VEC3"
    },
    {
      "bufferView": 1,
      "byteOffset": 98256,
      "componentType": 5126,
      "count": 270,
      "max": [
        0.98734527826309204,
        0.8814120888710022,
        0.98785203695297241
      ],
      "min": [
        -0.98734527826309204,
        -0.8814120888710022,
        -0.98785048723220825
      ],
      "type": "VEC3"
    },
    {
      "bufferView": 0,
      "byteOffset": 26268,
      "componentType": 5125,
      "count": 408,
      "max": [
        269
      ],
      "min": [
        0
      ],
      "type": "SCALAR"
    },
    {
      "bufferView": 1,
      "byteOffset": 101496,
      "componentType": 5126,
      "count": 144,
      "max": [
        18.211109161376953,
        2.545490026473999,
        40.901569366455078
      ],
      "min": [
        -39.001911163330078,
        -4.1510801315307617,
        27.482320785522461
      ],
      "type": "VEC3"
    },
    {
      "bufferView": 1,
      "byteOffset": 103224,
      "componentType": 5126,
      "count": 144,
      "max": [
        0.94273954629898071,
        0.86602717638015747,
        0.94273954629898071
      ],
      "min": [
        -0.94273954629898071,
        -0.86602717638015747,
        -0.94273954629898071
      ],
      "type": "VEC3"
    },
    {
      "bufferView": 0,
      "byteOffset": 27900,
      "componentType": 5125,
      "count": 240,
      "max": [
        143
      ],
      "min": [
        0
      ],
      "type": "SCALAR"
    },
    {
      "bufferView": 1,
      "byteOffset": 104952,
      "componentType": 5126,
      "count": 330,
      "max": [
        37.239330291748047,
        8.3518495559692383,
        31.605899810791016
      ],
      "min": [
        -62.819049835205078,
        -10.428350448608398,
        11.463150024414062
      ],
      "type": "VEC3"
    },
    {
      "bufferView": 1,
      "byteOffset": 108912,
      "componentType": 5126,
      "count": 330,
      "max": [
        1,
        1,
        1
      ],
      "min": [
        -1,
        -1,
        -1
      ],
      "type": "VEC3"
    },
    {
      "bufferView": 0,
      "byteOffset": 28860,
      "componentType": 5125,
      "count": 828,
      "max": [
        329
      ],
      "min": [
        0
      ],
      "type": "SCALAR"
    }
  ],
  "asset": {
    "extras": {
      "author": "Zszywacz (https://sketchfab.com/Zszywacz)",
      "license": "CC-BY-SA-4.0 (http://creativecommons.org/licenses/by-sa/4.0/)",
      "source": "https://sketchfab.com/models/0c51d4f6f0e24e29875aeb3ff2d65587",
      "title": "Titanic - Low poly"
    },
    "generator": "Sketchfab-3.23.2",
    "version": "2.0"
  },
  "bufferViews": [
    {
      "buffer": 0,
      "byteLength": 32172,
      "byteOffset": 0,
      "name": "floatBufferViews",
      "target": 34963
    },
    {
      "buffer": 0,
      "byteLength": 112872,
      "byteOffset": 32172,
      "byteStride": 12,
      "name": "floatBufferViews",
      "target": 34962
    }
  ],
  "buffers": [
    {
      "byteLength": 145044,
      "uri": "scene.bin"
    }
  ],
  "extensionsRequired": [
    "KHR_materials_pbrSpecularGlossiness"
  ],
  "extensionsUsed": [
    "KHR_materials_pbrSpecularGlossiness"
  ],
  "materials": [
    {
      "doubleSided": true,
      "emissiveFactor": [
        0,
        0,
        0
      ],
      "extensions": {
        "KHR_materials_pbrSpecularGlossiness": {
          "diffuseFactor": [
            1,
            0.0158258714,
            0.0133599527,
            1
          ],
          "glossinessFactor": 0,
          "specularFactor": [
            0,
            0,
            0
          ]
        }
      },
      "name": "Material.007"
    },
    {
      "doubleSided": true,
      "emissiveFactor": [
        0,
        0,
        0
      ],
      "extensions": {
        "KHR_materials_pbrSpecularGlossiness": {
          "diffuseFactor": [
            0.63827031850000004,
            0.63827031850000004,
            0.63827031850000004,
            1
          ],
          "glossinessFactor": 0.40000000000000002,
          "specularFactor": [
            0,
            0,
            0
          ]
        }
      },
      "name": "Material.006"
    },
    {
      "doubleSided": true,
      "emissiveFactor": [
        0,
        0,
        0
      ],
      "extensions": {
        "KHR_materials_pbrSpecularGlossiness": {
          "diffuseFactor": [
            0.014669340100000001,
            0.014669340100000001,
            0.014669340100000001,
            1
          ],
          "glossinessFactor": 0,
          "specularFactor": [
            0,
            0,
            0
          ]
        }
      },
      "name": "Material.008"
    },
    {
      "doubleSided": true,
      "emissiveFactor": [
        0,
        0,
        0
      ],
      "extensions": {
        "KHR_materials_pbrSpecularGlossiness": {
          "diffuseFactor": [
            0.10247320679999999,
            0.10247320679999999,
            0.10247320679999999,
            1
          ],
          "glossinessFactor": 0.40000000000000002,
          "specularFactor": [
            0,
            0,
            0
          ]
        }
      },
      "name": "Material.010"
    },
    {
      "doubleSided": true,
      "emissiveFactor": [
        0,
        0,
        0
      ],
      "extensions": {
        "KHR_materials_pbrSpecularGlossiness": {
          "diffuseFactor": [
            0.25979775189999998,
            0.031983312200000003,
            0.029899248900000001,
            1
          ],
          "glossinessFactor": 0,
          "specularFactor": [
            0,
            0,
            0
          ]
        }
      },
      "name": "Material.015"
    },
    {
      "doubleSided": true,
      "emissiveFactor": [
        0,
        0,
        0
      ],
      "extensions": {
        "KHR_materials_pbrSpecularGlossiness": {
          "diffuseFactor": [
            0.88292163609999996,
            0.2458198369,
            0.020905444400000001,
            1
          ],
          "glossinessFactor": 0,
          "specularFactor": [
            0,
            0,
            0
          ]
        }
      },
      "name": "Material.013"
    },
    {
      "doubleSided": true,
      "emissiveFactor": [
        0,
        0,
        0
      ],
      "extensions": {
        "KHR_materials_pbrSpecularGlossiness": {
          "diffuseFactor": [
            1,
            1,
            1,
            1
          ],
          "glossinessFactor": 0,
          "specularFactor": [
            0,
            0,
            0
          ]
        }
      },
      "name": "Material.012"
    }
  ],
  "meshes": [
    {
      "name": "Cube.003_0",
      "primitives": [
        {
          "attributes": {
            "NORMAL": 1,
            "POSITION": 0
          },
          "indices": 2,
          "material": 0,
          "mode": 4
        }
      ]
    },
    {
      "name": "Cube.003_1",
      "primitives": [
        {
          "attributes": {
            "NORMAL": 4,
            "POSITION": 3
          },
          "indices": 5,
          "material": 1,
          "mode": 4
        }
      ]
    },
    {
      "name": "Cube.003_2",
      "primitives": [
        {
          "attributes": {
            "NORMAL": 7,
            "POSITION": 6
          },
          "indices": 8,
          "material": 2,
          "mode": 4
        }
      ]
    },
    {
      "name": "Cube.003_3",
      "primitives": [
        {
          "attributes": {
            "NORMAL": 10,
            "POSITION": 9
          },
          "indices": 11,
          "material": 3,
          "mode": 4
        }
      ]
    },
    {
      "name": "Cube.003_4",
      "primitives": [
        {
          "attributes": {
            "NORMAL": 13,
            "POSITION": 12
          },
          "indices": 14,
          "material": 4,
          "mode": 4
        }
      ]
    },
    {
      "name": "Cube.003_5",
      "primitives": [
        {
          "attributes": {
            "NORMAL": 16,
            "POSITION": 15
          },
          "indices": 17,
          "material": 5,
          "mode": 4
        }
      ]
    },
    {
      "name": "Cube.003_6",
      "primitives": [
        {
          "attributes": {
            "NORMAL": 19,
            "POSITION": 18
          },
          "indices": 20,
          "material": 6,
          "mode": 4
        }
      ]
    }
  ],
  "nodes": [
    {
      "children": [
        1
      ],
      "name": "RootNode (gltf orientation matrix)",
      "rotation": [
        -0.70710678118654746,
        -0,
        -0,
        0.70710678118654757
      ]
    },
    {
      "children": [
        2
      ],
      "name": "RootNode (model correction matrix)"
    },
    {
      "children": [
        3
      ],
      "name": "Root"
    },
    {
      "children": [
        4,
        5,
        6,
        7,
        8,
        9,
        10
      ],
      "matrix": [
        0.5496700000000001,
        0,
        0,
        0,
        0,
        -0.5496700000000001,
        0,
        0,
        0,
        0,
        0.5496700000000001,
        0,
        -0.60162000000000015,
        -4.6394200000000003,
        -0.48067000000000004,
        1
      ],
      "name": "Cube.003"
    },
    {
      "mesh": 0,
      "name": "Cube.003_0"
    },
    {
      "mesh": 1,
      "name": "Cube.003_1"
    },
    {
      "mesh": 2,
      "name": "Cube.003_2"
    },
    {
      "mesh": 3,
      "name": "Cube.003_3"
    },
    {
      "mesh": 4,
      "name": "Cube.003_4"
    },
    {
      "mesh": 5,
      "name": "Cube.003_5"
    },
    {
      "mesh": 6,
      "name": "Cube.003_6"
    }
  ],
  "scene": 0,
  "scenes": [
    {
      "name": "OSG_Scene",
      "nodes": [
        0
      ]
    }
  ]
}

