{
  "accessors": [
    {
      "bufferView": 2,
      "componentType": 5126,
      "count": 1225,
      "max": [
        13.128100395202637,
        26.012100219726563,
        184.90750122070313
      ],
      "min": [
        -23.030099868774414,
        -19.680400848388672,
        120.356201171875
      ],
      "type": "VEC3"
    },
    {
      "bufferView": 2,
      "byteOffset": 14700,
      "componentType": 5126,
      "count": 1225,
      "max": [
        0.9991176724433899,
        0.999472439289093,
        0.9999998807907104
      ],
      "min": [
        -0.9974060654640198,
        -1.0,
        -0.9999998807907104
      ],
      "type": "VEC3"
    },
    {
      "bufferView": 1,
      "componentType": 5126,
      "count": 1225,
      "max": [
        0.9926999807357788,
        0.9936000108718872
      ],
      "min": [
        0.004000000189989805,
        0.007799999788403511
      ],
      "type": "VEC2"
    },
    {
      "bufferView": 0,
      "componentType": 5125,
      "count": 5580,
      "type": "SCALAR"
    },
    {
      "bufferView": 2,
      "byteOffset": 29400,
      "componentType": 5126,
      "count": 2159,
      "max": [
        52.10240173339844,
        20.64069938659668,
        154.43850708007813
      ],
      "min": [
        -52.10240173339844,
        -18.764799118041992,
        34.301300048828125
      ],
      "type": "VEC3"
    },
    {
      "bufferView": 2,
      "byteOffset": 55308,
      "componentType": 5126,
      "count": 2159,
      "max": [
        0.9999918937683105,
        0.9998061060905457,
        0.9932587146759033
      ],
      "min": [
        -0.9999918937683105,
        -0.9994188547134399,
        -0.9999988079071045
      ],
      "type": "VEC3"
    },
    {
      "bufferView": 1,
      "byteOffset": 9800,
      "componentType": 5126,
      "count": 2159,
      "max": [
        0.9750999808311462,
        0.9970999956130981
      ],
      "min": [
        0.002899999963119626,
        0.005900000222027302
      ],
      "type": "VEC2"
    },
    {
      "bufferView": 0,
      "byteOffset": 22320,
      "componentType": 5125,
      "count": 9999,
      "type": "SCALAR"
    },
    {
      "bufferView": 2,
      "byteOffset": 81216,
      "componentType": 5126,
      "count": 1904,
      "max": [
        38.95249938964844,
        20.871400833129883,
        190.68679809570313
      ],
      "min": [
        -29.926700592041016,
        -23.827499389648438,
        -0.09539999812841415
      ],
      "type": "VEC3"
    },
    {
      "bufferView": 2,
      "byteOffset": 104064,
      "componentType": 5126,
      "count": 1904,
      "max": [
        0.9999988079071045,
        0.9991018176078796,
        0.9974691867828369
      ],
      "min": [
        -0.9999988079071045,
        -0.9998111128807068,
        -0.9999988079071045
      ],
      "type": "VEC3"
    },
    {
      "bufferView": 1,
      "byteOffset": 27072,
      "componentType": 5126,
      "count": 1904,
      "max": [
        0.9794999957084656,
        0.9970999956130981
      ],
      "min": [
        0.002899999963119626,
        0.008299999870359898
      ],
      "type": "VEC2"
    },
    {
      "bufferView": 0,
      "byteOffset": 62316,
      "componentType": 5125,
      "count": 8355,
      "type": "SCALAR"
    },
    {
      "bufferView": 2,
      "byteOffset": 126912,
      "componentType": 5126,
      "count": 70,
      "max": [
        8.215999603271484,
        -12.806400299072266,
        172.16160583496094
      ],
      "min": [
        -8.215999603271484,
        -14.812600135803223,
        169.468994140625
      ],
      "type": "VEC3"
    },
    {
      "bufferView": 2,
      "byteOffset": 127752,
      "componentType": 5126,
      "count": 70,
      "max": [
        0.7943309545516968,
        -0.6000139713287354,
        0.32178378105163574
      ],
      "min": [
        -0.7982185482978821,
        -0.9985988140106201,
        -0.4396035969257355
      ],
      "type": "VEC3"
    },
    {
      "bufferView": 1,
      "byteOffset": 42304,
      "componentType": 5126,
      "count": 70,
      "max": [
        -0.13680000603199005,
        0.6295999884605408
      ],
      "min": [
        -0.8945000171661377,
        0.2768999934196472
      ],
      "type": "VEC2"
    },
    {
      "bufferView": 0,
      "byteOffset": 95736,
      "componentType": 5125,
      "count": 288,
      "type": "SCALAR"
    },
    {
      "bufferView": 2,
      "byteOffset": 128592,
      "componentType": 5126,
      "count": 1585,
      "max": [
        30.79800033569336,
        28.816699981689453,
        199.83290100097656
      ],
      "min": [
        -30.79520034790039,
        -28.661100387573242,
        117.60050201416016
      ],
      "type": "VEC3"
    },
    {
      "bufferView": 2,
      "byteOffset": 147612,
      "componentType": 5126,
      "count": 1585,
      "max": [
        0.9994186162948608,
        0.9993300437927246,
        0.9999604225158691
      ],
      "min": [
        -0.9985003471374512,
        -0.9999423027038574,
        -0.9998039603233337
      ],
      "type": "VEC3"
    },
    {
      "bufferView": 1,
      "byteOffset": 42864,
      "componentType": 5126,
      "count": 1585,
      "max": [
        0.9541000127792358,
        0.9970999956130981
      ],
      "min": [
        0.002899999963119626,
        0.0005000000237487257
      ],
      "type": "VEC2"
    },
    {
      "bufferView": 0,
      "byteOffset": 96888,
      "componentType": 5125,
      "count": 6807,
      "type": "SCALAR"
    }
  ],
  "asset": {
    "extras": {
      "author": "Neut2000 (https://sketchfab.com/Neut2000)",
      "license": "CC-BY-4.0 (http://creativecommons.org/licenses/by/4.0/)",
      "source": "https://sketchfab.com/3d-models/disney-infinity-captain-jack-sparrow-003327459e1a4c27aa70061882bb79e7",
      "title": "Disney Infinity Captain Jack Sparrow"
    },
    "generator": "Sketchfab-11.9.0",
    "version": "2.0"
  },
  "bufferViews": [
    {
      "buffer": 0,
      "byteLength": 124116,
      "name": "floatBufferViews",
      "target": 34963
    },
    {
      "buffer": 0,
      "byteLength": 55544,
      "byteOffset": 124116,
      "byteStride": 8,
      "name": "floatBufferViews",
      "target": 34962
    },
    {
      "buffer": 0,
      "byteLength": 166632,
      "byteOffset": 179660,
      "byteStride": 12,
      "name": "floatBufferViews",
      "target": 34962
    }
  ],
  "buffers": [
    {
      "byteLength": 346292,
      "uri": "scene.bin"
    }
  ],
  "images": [
    {
      "uri": "textures/Material__27_baseColor.png"
    },
    {
      "uri": "textures/Material__28_baseColor.png"
    },
    {
      "uri": "textures/Material__29_baseColor.png"
    },
    {
      "uri": "textures/Material__30_baseColor.png"
    }
  ],
  "materials": [
    {
      "doubleSided": true,
      "emissiveTexture": {
        "index": 0
      },
      "name": "Material__27",
      "pbrMetallicRoughness": {
        "baseColorTexture": {
          "index": 0
        },
        "metallicFactor": 0.0
      }
    },
    {
      "doubleSided": true,
      "emissiveTexture": {
        "index": 1
      },
      "name": "Material__28",
      "pbrMetallicRoughness": {
        "baseColorTexture": {
          "index": 1
        },
        "metallicFactor": 0.0
      }
    },
    {
      "doubleSided": true,
      "emissiveTexture": {
        "index": 2
      },
      "name": "Material__29",
      "pbrMetallicRoughness": {
        "baseColorTexture": {
          "index": 2
        },
        "metallicFactor": 0.0
      }
    },
    {
      "doubleSided": true,
      "emissiveTexture": {
        "index": 3
      },
      "name": "Material__30",
      "pbrMetallicRoughness": {
        "baseColorTexture": {
          "index": 3
        },
        "metallicFactor": 0.0
      }
    }
  ],
  "meshes": [
    {
      "name": "Object_0",
      "primitives": [
        {
          "attributes": {
            "NORMAL": 1,
            "POSITION": 0,
            "TEXCOORD_0": 2
          },
          "indices": 3,
          "material": 0,
          "mode": 4
        }
      ]
    },
    {
      "name": "Object_1",
      "primitives": [
        {
          "attributes": {
            "NORMAL": 5,
            "POSITION": 4,
            "TEXCOORD_0": 6
          },
          "indices": 7,
          "material": 1,
          "mode": 4
        }
      ]
    },
    {
      "name": "Object_2",
      "primitives": [
        {
          "attributes": {
            "NORMAL": 9,
            "POSITION": 8,
            "TEXCOORD_0": 10
          },
          "indices": 11,
          "material": 1,
          "mode": 4
        }
      ]
    },
    {
      "name": "Object_3",
      "primitives": [
        {
          "attributes": {
            "NORMAL": 13,
            "POSITION": 12,
            "TEXCOORD_0": 14
          },
          "indices": 15,
          "material": 3,
          "mode": 4
        }
      ]
    },
    {
      "name": "Object_4",
      "primitives": [
        {
          "attributes": {
            "NORMAL": 17,
            "POSITION": 16,
            "TEXCOORD_0": 18
          },
          "indices": 19,
          "material": 2,
          "mode": 4
        }
      ]
    }
  ],
  "nodes": [
    {
      "children": [
        1
      ],
      "matrix": [
        1.0,
        0.0,
        0.0,
        0.0,
        0.0,
        2.220446049250313e-16,
        -1.0,
        0.0,
        0.0,
        1.0,
        2.220446049250313e-16,
        0.0,
        0.0,
        0.0,
        0.0,
        1.0
      ],
      "name": "Sketchfab_model"
    },
    {
      "children": [
        2,
        3,
        4,
        5,
        6
      ],
      "name": "Jack Sparrow.obj.cleaner.materialmerger.gles"
    },
    {
      "mesh": 0,
      "name": "Object_2"
    },
    {
      "mesh": 1,
      "name": "Object_3"
    },
    {
      "mesh": 2,
      "name": "Object_4"
    },
    {
      "mesh": 3,
      "name": "Object_5"
    },
    {
      "mesh": 4,
      "name": "Object_6"
    }
  ],
  "samplers": [
    {
      "magFilter": 9729,
      "minFilter": 9987,
      "wrapS": 10497,
      "wrapT": 10497
    }
  ],
  "scene": 0,
  "scenes": [
    {
      "name": "Sketchfab_Scene",
      "nodes": [
        0
      ]
    }
  ],
  "textures": [
    {
      "sampler": 0,
      "source": 0
    },
    {
      "sampler": 0,
      "source": 1
    },
    {
      "sampler": 0,
      "source": 2
    },
    {
      "sampler": 0,
      "source": 3
    }
  ]
}
