{
  "accessors": [
    {
      "bufferView": 2,
      "componentType": 5126,
      "count": 54505,
      "max": [
        1.1288862228393555,
        1.1294877529144287,
        0.22146186232566833
      ],
      "min": [
        -1.1299865245819092,
        -1.1297458410263062,
        -0.2349390685558319
      ],
      "type": "VEC3"
    },
    {
      "bufferView": 2,
      "byteOffset": 654060,
      "componentType": 5126,
      "count": 54505,
      "max": [
        0.9999722242355347,
        0.9999924898147583,
        0.9999771118164063
      ],
      "min": [
        -0.9999743700027466,
        -0.9999395608901978,
        -0.9999772310256958
      ],
      "type": "VEC3"
    },
    {
      "bufferView": 1,
      "componentType": 5126,
      "count": 54505,
      "max": [
        0.0,
        0.0
      ],
      "min": [
        0.0,
        0.0
      ],
      "type": "VEC2"
    },
    {
      "bufferView": 0,
      "componentType": 5125,
      "count": 245328,
      "type": "SCALAR"
    },
    {
      "bufferView": 2,
      "byteOffset": 1308120,
      "componentType": 5126,
      "count": 6226,
      "max": [
        1.1223976612091064,
        1.1223976612091064,
        0.343406081199646
      ],
      "min": [
        -1.1223976612091064,
        -1.122397541999817,
        -0.34340599179267883
      ],
      "type": "VEC3"
    },
    {
      "bufferView": 2,
      "byteOffset": 1382832,
      "componentType": 5126,
      "count": 6226,
      "max": [
        1.0,
        1.0,
        0.9989138245582581
      ],
      "min": [
        -1.0,
        -1.0,
        -0.9983312487602234
      ],
      "type": "VEC3"
    },
    {
      "bufferView": 1,
      "byteOffset": 436040,
      "componentType": 5126,
      "count": 6226,
      "max": [
        1.0,
        1.0
      ],
      "min": [
        0.0,
        0.0
      ],
      "type": "VEC2"
    },
    {
      "bufferView": 0,
      "byteOffset": 981312,
      "componentType": 5125,
      "count": 34560,
      "type": "SCALAR"
    }
  ],
  "asset": {
    "extras": {
      "author": "Don42 (https://sketchfab.com/Don42)",
      "license": "CC-BY-NC-SA-4.0 (http://creativecommons.org/licenses/by-nc-sa/4.0/)",
      "source": "https://sketchfab.com/3d-models/lotrthe-one-ringfull-3d-free-e63a62533f514c808b4f0770241a31e7",
      "title": "LotR~The one Ring~full 3D [FREE]"
    },
    "generator": "Sketchfab-10.52.0",
    "version": "2.0"
  },
  "bufferViews": [
    {
      "buffer": 0,
      "byteLength": 1119552,
      "name": "floatBufferViews",
      "target": 34963
    },
    {
      "buffer": 0,
      "byteLength": 485848,
      "byteOffset": 1119552,
      "byteStride": 8,
      "name": "floatBufferViews",
      "target": 34962
    },
    {
      "buffer": 0,
      "byteLength": 1457544,
      "byteOffset": 1605400,
      "byteStride": 12,
      "name": "floatBufferViews",
      "target": 34962
    }
  ],
  "buffers": [
    {
      "byteLength": 3062944,
      "uri": "scene.bin"
    }
  ],
  "extensionsUsed": [
    "KHR_materials_clearcoat"
  ],
  "images": [
    {
      "uri": "textures/SVGMat.003_metallicRoughness.png"
    }
  ],
  "materials": [
    {
      "doubleSided": true,
      "emissiveFactor": [
        1.0,
        0.4655947219999995,
        0.0
      ],
      "extensions": {
        "KHR_materials_clearcoat": {
          "clearcoatFactor": 1.0,
          "clearcoatRoughnessFactor": 1.0,
          "clearcoatRoughnessTexture": {
            "index": 0
          }
        }
      },
      "name": "SVGMat.003",
      "pbrMetallicRoughness": {
        "baseColorFactor": [
          1.0,
          0.0,
          0.0,
          1.0
        ],
        "metallicRoughnessTexture": {
          "index": 0
        }
      }
    },
    {
      "extensions": {
        "KHR_materials_clearcoat": {
          "clearcoatFactor": 1.0,
          "clearcoatRoughnessFactor": 1.0,
          "clearcoatRoughnessTexture": {
            "index": 1
          }
        }
      },
      "name": "Material.001",
      "pbrMetallicRoughness": {
        "baseColorFactor": [
          0.5469729369,
          0.2874324476,
          0.0445968786,
          1.0
        ],
        "metallicRoughnessTexture": {
          "index": 1
        }
      }
    }
  ],
  "meshes": [
    {
      "name": "Curve.007_SVGMat.003_0",
      "primitives": [
        {
          "attributes": {
            "NORMAL": 1,
            "POSITION": 0,
            "TEXCOORD_0": 2
          },
          "indices": 3,
          "material": 0,
          "mode": 4
        }
      ]
    },
    {
      "name": "BezierCircle.002_Material.001_0",
      "primitives": [
        {
          "attributes": {
            "NORMAL": 5,
            "POSITION": 4,
            "TEXCOORD_0": 6
          },
          "indices": 7,
          "material": 1,
          "mode": 4
        }
      ]
    }
  ],
  "nodes": [
    {
      "children": [
        1
      ],
      "matrix": [
        1.0,
        0.0,
        0.0,
        0.0,
        0.0,
        2.220446049250313e-16,
        -1.0,
        0.0,
        0.0,
        1.0,
        2.220446049250313e-16,
        0.0,
        0.0,
        0.0,
        0.0,
        1.0
      ],
      "name": "Sketchfab_model"
    },
    {
      "children": [
        2
      ],
      "matrix": [
        1.0,
        0.0,
        0.0,
        0.0,
        0.0,
        0.0,
        1.0,
        0.0,
        0.0,
        -1.0,
        0.0,
        0.0,
        0.0,
        0.0,
        0.0,
        1.0
      ],
      "name": "d6aa9488aea742eb949879bffe9d0965.fbx"
    },
    {
      "children": [
        3,
        5
      ],
      "name": "RootNode"
    },
    {
      "children": [
        4
      ],
      "matrix": [
        1.0,
        0.0,
        0.0,
        0.0,
        0.0,
        -1.6292067939183141e-07,
        -0.9999999999999868,
        0.0,
        0.0,
        0.8000000119209184,
        -1.30336545455631e-07,
        0.0,
        0.0,
        0.00808474700897932,
        0.0,
        1.0
      ],
      "name": "Curve.007"
    },
    {
      "mesh": 0,
      "name": "Curve.007_SVGMat.003_0"
    },
    {
      "children": [
        6
      ],
      "matrix": [
        1.0,
        0.0,
        0.0,
        0.0,
        0.0,
        -1.6292067939183141e-07,
        -0.9999999999999868,
        0.0,
        0.0,
        0.8000000119209184,
        -1.30336545455631e-07,
        0.0,
        0.0,
        0.0008983050938695669,
        0.0,
        1.0
      ],
      "name": "BezierCircle.002"
    },
    {
      "mesh": 1,
      "name": "BezierCircle.002_Material.001_0"
    }
  ],
  "samplers": [
    {
      "magFilter": 9729,
      "minFilter": 9987,
      "wrapS": 10497,
      "wrapT": 10497
    },
    {
      "magFilter": 9729,
      "minFilter": 9987,
      "wrapS": 33648,
      "wrapT": 33648
    }
  ],
  "scene": 0,
  "scenes": [
    {
      "name": "Sketchfab_Scene",
      "nodes": [
        0
      ]
    }
  ],
  "textures": [
    {
      "sampler": 0,
      "source": 0
    },
    {
      "sampler": 1,
      "source": 0
    }
  ]
}
